# xmcd
#
# Track frame offsets:
#	150
#	29120
#	59755
#	92405
#	116573
#	139052
#	153195
#	183220
#	204522
#	227038
#	261494
#	272321
#
# Disc length: 3868 seconds
# Revision: 0
# Processed by: cddbd v1.5.2PL0 Copyright (c) Steve Scherf et al.
# Submitted via: dBpowerAMP V12.0
#
DISCID=a60f1a0c
DTITLE=Joe Bonamassa - Ballad Of John Henry
DYEAR=2009
DGENRE=
TTITLE0=Ballad Of John Henry
TTITLE1=Stop
TTITLE2=Last Kiss
TTITLE3=Jockey Full Of Bourbon
TTITLE4=Story Of A Quarryman
TTITLE5=Lonesome Road Blues
TTITLE6=Happier Times
TTITLE7=Feelin' Good
TTITLE8=Funkier Than A Mosquito's Tweeter
TTITLE9=The Great Flood
TTITLE10=From The Valley
TTITLE11=As The Crow Flies
EXTD=
EXTT0=
EXTT1=
EXTT2=
EXTT3=
EXTT4=
EXTT5=
EXTT6=
EXTT7=
EXTT8=
EXTT9=
EXTT10=
EXTT11=
PLAYORDER=
